<?xml version="1.0" encoding="UTF-8"?>
<svg id="_图层_2" data-name="图层 2" xmlns="http://www.w3.org/2000/svg" viewBox="0 0 494.3 494.3">
  <defs>
    <style>
      .cls-1 { fill: #3066a0; }
      .cls-2 { fill: #717071; }
    </style>
  </defs>
  <g id="_图层_1-2" data-name="图层 1">
    <g>
      <g>
        <path class="cls-2" d="M263.48,135.84l12.33-12.79c-9.23-2.11-18.81-3.18-28.5-3.18-18.42,0-36.1,3.83-52.64,11.4v16.4c20.91-11.08,45.11-15.24,68.81-11.92"/>
        <path class="cls-2" d="M292.16,366.34c49.51-18.66,82.45-65.95,82.45-119.15,0-31.3-11.43-61.24-32.26-84.64l-.04,.04s.02,.02,.03,.03l-10.31,10.34c18.03,20.61,27.93,46.84,27.93,74.23,0,49.11-32.52,93.12-79.3,107.64"/>
        <path class="cls-2" d="M370.29,444.7c67.52-42.17,109.37-117.57,109.37-197.35,0-60.09-22.72-116.78-64.11-160.25l-8.2-8.2C341.46,16.58,263.85,14.64,247,14.64c-17.85,0-35.45,1.98-52.33,5.9v.09l-9.54-12.79-2.49,.7v-.09l2.49-.7C205.15,2.6,225.95,0,247,0c136.37,0,247.3,110.96,247.3,247.34,0,85.3-45.19,166.08-117.94,210.81l-7.99,5.13,1.17-11.28,.75-7.31Z"/>
        <polyline class="cls-2" points="280.66 354.91 280.73 354.9 292.21 366.4"/>
        <path class="cls-2" d="M240.33,314.29s-.06,0-.09,0"/>
        <path class="cls-2" d="M120.01,441.9C54.89,399.14,14.65,325.03,14.65,247.18S54.89,95.3,120.01,52.55v.09l3.64-19.56v-.09C47.38,77.17,0,159.24,0,247.18s47.38,170.1,123.63,214.18l8.1,4.33-11.71-23.7v-.09Z"/>
        <path class="cls-2" d="M294.69,474.98c-1.17,.23-2.34,.46-3.5,.69-12.95,2.29-31.3,3.42-43.6,3.5h-.68c-23.64,0-44.75-4.56-52.32-6.4v.09l-8.93,13.9c22.3,5.21,41.23,7.54,61.38,7.54h2.27c12.9-.08,25.69-1.07,37.58-2.94l3.37-.53c7.31-1.2,19.99-4.26,19.99-4.26,2.62-.66,4.53-1.23,5.84-1.63l-21.32-9.89-.08-.07Z"/>
        <path class="cls-2" d="M214.8,288.64c.09,.07,.19,.12,.28,.19l25.16,25.36c2.33,.25,4.7,.37,7.07,.37,37.11,0,67.29-30.23,67.29-67.38,0-15.32-5.21-30.16-14.74-42.1l-10.49,10.47c6.84,9.13,10.58,20.23,10.58,31.63,0,29.08-23.62,52.73-52.65,52.73-12.09,0-23.41-4-32.51-11.36"/>
      </g>
      <path class="cls-1" d="M331.98,172.58l10.31-10.34s-.02-.02-.03-.03l29.37-29.72,8.16,14.91c1.57,2.82,4.65,4.4,7.72,3.99,3.18-.36,5.71-2.52,6.61-5.69l13.25-49.6c.11-.45,.17-.91,.19-1.37,0,0,1.99-10.77-8.2-8.2-.53,.03-1.04,.12-1.55,.26l-49.38,13.22c-3.12,.81-5.37,3.41-5.75,6.63-.36,3.18,1.22,6.19,3.98,7.64l14.85,7.91-118.11,118.21c-1.18,1.06-1.85,2.57-1.85,4.14s.66,3.08,1.69,4l2.23,2.21c2.12,2.35,6.37,2.16,8.12,.15l35.67-35.67,42.69-42.63Zm-51.36,181.96l-40.43-40.63s.06,0,.1,0l-25.25-25.46c-.09-.07-.19-.12-.28-.19l-6.6-6.57c-2.59-3.03-4.84-6.13-6.99-9.64-.82-1.49-1.58-2.93-2.28-4.43-2.24-4.54-3.61-9.51-4.19-15.05-.07-1.68-.07-3.36-.07-4.8,.06-2.93,.25-5.85,.54-8.17l.13-1.12c.08-.54,.12-.96,.09-.96,0,0,0,0,0,0,2.27-16.72,12.56-26.08,14.79-27.97l82.34-82.36-14.94-4.02-1.92-.42-12.22,12.7-62.79,63.06c-.68,.43-3.11,2.5-5.89,5.76-.04,.05-.08,.09-.12,.14V20.25l-9.54-12.79-2.49,.7c-14.15,3.8-28.19,9.05-41.88,15.66l-17.11,8.89-3.64,19.56V441.61l12,24.28,8.63,4.28c13.86,6.77,26.93,11.6,41.18,15.27l3.79,1.01,8.98-13.98v-96.86l100.18,99.06,21.44,9.94,3.62-1.14c12.05-3.82,24.17-8.61,36.08-14.27,5.6-2.71,4.53-2.12,7.03-3.53l5.42-2.69,1.93-18.59-78.13-78.36s.03-.01,.05-.02l-11.48-11.5m76.45,97.57c-18.58,9.6-37.95,15.97-45.73,18.35l-131.59-131.79,.08,130.29c-17.54-5.18-32.06-11.06-45.27-18.36V43.36c13.14-7.25,29.59-14.33,45.04-19.41v249.57l6.51,6.56c1.5,2.06,12.44,13.44,14.6,15.67,4.23,4.49,8.06,8.48,9.51,9.99l146.86,146.35Z"/>
    </g>
  </g>
</svg>
