<svg xmlns="http://www.w3.org/2000/svg" width="840" height="340" viewBox="0 0 840 340" role="img" aria-label="Product matrix demo">
  <rect width="100%" height="100%" fill="#1e1e20" rx="12"/>
  <text x="30" y="40" font-family="system-ui,Segoe UI,Roboto" font-size="20" fill="#fff">Product Matrix (Demo)</text>
  <g font-family="system-ui,Segoe UI,Roboto" font-size="12" fill="#d1d5db">
    <text x="30" y="80">搜索 / Tags / 列勾选 / 导出 / 排序</text>
  </g>
  <g transform="translate(30,100)" font-family="system-ui,Segoe UI,Roboto" font-size="11">
    <rect width="780" height="170" fill="#26262a" stroke="#333" rx="6"/>
    <g fill="#9ca3af">
      <text x="16" y="24">产品 ↑</text>
      <text x="140" y="24">定位</text>
      <text x="280" y="24">场景</text>
      <text x="420" y="24">版本</text>
      <text x="480" y="24">状态</text>
      <text x="540" y="24">标签</text>
      <text x="660" y="24">文档</text>
    </g>
    <g fill="#e5e7eb">
      <text x="16" y="52">KRVIRT 虚拟化平台</text>
      <text x="16" y="74">KRCMP 云管理平台</text>
      <text x="16" y="96">KRDesktop 云桌面</text>
      <text x="16" y="118">KRStorage 存储管理系统</text>
    </g>
    <g>
      <rect x="410" y="40" width="46" height="16" rx="4" fill="#374151"/>
      <text x="418" y="52" font-size="10" fill="#d1d5db">v1.3</text>
      <rect x="470" y="40" width="44" height="16" rx="4" fill="#064e3b"/>
      <text x="478" y="52" font-size="10" fill="#d1fae5">GA</text>
      <rect x="410" y="62" width="46" height="16" rx="4" fill="#374151"/>
      <text x="418" y="74" font-size="10" fill="#d1d5db">v0.9</text>
      <rect x="470" y="62" width="44" height="16" rx="4" fill="#92400e"/>
      <text x="476" y="74" font-size="10" fill="#fef3c7">Beta</text>
      <rect x="410" y="84" width="46" height="16" rx="4" fill="#374151"/>
      <text x="418" y="96" font-size="10" fill="#d1d5db">v2.1</text>
      <rect x="470" y="84" width="44" height="16" rx="4" fill="#064e3b"/>
      <text x="478" y="96" font-size="10" fill="#d1fae5">GA</text>
      <rect x="410" y="106" width="46" height="16" rx="4" fill="#374151"/>
      <text x="418" y="118" font-size="10" fill="#d1d5db">v1.0</text>
      <rect x="470" y="106" width="62" height="16" rx="4" fill="#3730a3"/>
      <text x="478" y="118" font-size="10" fill="#e0e7ff">Preview</text>
    </g>
    <g font-size="9" fill="#9ca3af">
      <text x="540" y="52">virtualization</text>
      <text x="540" y="74">multicloud</text>
      <text x="540" y="96">desktop</text>
      <text x="540" y="118">storage</text>
    </g>
    <g font-size="10" fill="#60a5fa">
      <text x="660" y="52">进入</text>
      <text x="660" y="74">进入</text>
      <text x="660" y="96">进入</text>
      <text x="660" y="118">进入</text>
    </g>
  </g>
  <text x="30" y="300" font-size="11" fill="#6b7280">动态列 / 标签过滤 / 导出 CSV/MD / 排序</text>
</svg>